<svg xmlns="http://www.w3.org/2000/svg" viewBox="0 0 14.78 24.05"><defs><style>.cls-1{fill:#3b49a1;}</style></defs><title>icon-tel</title><g id="レイヤー_2" data-name="レイヤー 2"><g id="レイヤー_1-2" data-name="レイヤー 1"><path class="cls-1" d="M7.29,6.05c-1.08-1.37.49-5.54,3-6a3.61,3.61,0,0,1,3,1c3.38,3.17.26,11.71-2,16-1.45,2.73-3.62,6.82-7,7a4.25,4.25,0,0,1-4-2c-.95-2,.63-4.87,2-5a3,3,0,0,1,1.58.71c.22.16.42.29.42,1.29,3,0,4-4,5-6s2.28-4.6,1-6c-.24-.26-.71.06-1,0A3.16,3.16,0,0,1,7.29,6.05Z"/></g></g></svg>