<svg xmlns="http://www.w3.org/2000/svg" viewBox="0 0 38.75 39.07"><defs><style>.cls-1{fill:#666;}</style></defs><title>to-box-tel</title><g id="レイヤー_2" data-name="レイヤー 2"><g id="レイヤー_1-2" data-name="レイヤー 1"><path class="cls-1" d="M.65,19.07s-2-6,1-9,5-3,6-2a32.08,32.08,0,0,1,3,5,3.1,3.1,0,0,1-2,4c-3,1,4,8,4,8s7,7,9,5c1-2,2-3,5-2s5,3,5,5-5,6-8,6S6.65,31.07.65,19.07Z"/><path class="cls-1" d="M24.67,20.23c-.87-5.2-6-6.14-6.18-6.18l.33-2a9.71,9.71,0,0,1,7.82,7.82Z"/><path class="cls-1" d="M18.65,6.07a12,12,0,0,1,5.56.61,14,14,0,0,1,4.93,2.91,11.51,11.51,0,0,1,3.2,4.85,10.07,10.07,0,0,1,.31,5.63,34.65,34.65,0,0,0-2.44-4.61,18.22,18.22,0,0,0-3.11-3.66,29.69,29.69,0,0,0-3.91-3C21.78,7.88,20.28,7,18.65,6.07Z"/><path class="cls-1" d="M20.65.07a15.94,15.94,0,0,1,7,1,17.89,17.89,0,0,1,6.14,3.84,18.17,18.17,0,0,1,2.38,2.81A16.51,16.51,0,0,1,37.81,11l.3.86a3.8,3.8,0,0,1,.24.87l.31,1.77a9.52,9.52,0,0,1,.08,1.78c0,.59,0,1.18-.09,1.76-.27-.54-.5-1.07-.72-1.6a12.12,12.12,0,0,0-.68-1.55A24.93,24.93,0,0,0,35.68,12a27.49,27.49,0,0,0-1.8-2.63,27.47,27.47,0,0,0-2.15-2.31A29.52,29.52,0,0,0,26.64,3.2,55.73,55.73,0,0,0,20.65.07Z"/></g></g></svg>