<svg xmlns="http://www.w3.org/2000/svg" viewBox="0 0 26 23"><defs><style>.cls-1{fill:#d6383c;}</style></defs><title>icon-semidouble</title><g id="レイヤー_2" data-name="レイヤー 2"><g id="レイヤー_1-2" data-name="レイヤー 1"><circle class="cls-1" cx="17" cy="5" r="5"/><path class="cls-1" d="M17,11c-5,0-9,5.37-9,12H26C26,16.37,22,11,17,11Z"/><path class="cls-1" d="M11,5A5,5,0,0,1,14.5.25,5,5,0,1,0,13,10a5,5,0,0,0,1.5-.25A5,5,0,0,1,11,5Z"/><path class="cls-1" d="M14.5,11.18A6.84,6.84,0,0,0,13,11c-5,0-9,5.37-9,12H7C7,17.06,10.25,12.13,14.5,11.18Z"/><path class="cls-1" d="M7,5A5,5,0,0,1,10.5.25,5,5,0,1,0,9,10a5,5,0,0,0,1.5-.25A5,5,0,0,1,7,5Z"/><path class="cls-1" d="M10.5,11.18A6.84,6.84,0,0,0,9,11c-5,0-9,5.37-9,12H3C3,17.06,6.25,12.13,10.5,11.18Z"/></g></g></svg>