<svg id="レイヤー_1" data-name="レイヤー 1" xmlns="http://www.w3.org/2000/svg" width="100%" height="100%" viewBox="0 0 301 42">
  <metadata><?xpacket begin="﻿" id="W5M0MpCehiHzreSzNTczkc9d"?>
<x:xmpmeta xmlns:x="adobe:ns:meta/" x:xmptk="Adobe XMP Core 5.6-c142 79.160924, 2017/07/13-01:06:39        ">
   <rdf:RDF xmlns:rdf="http://www.w3.org/1999/02/22-rdf-syntax-ns#">
      <rdf:Description rdf:about=""/>
   </rdf:RDF>
</x:xmpmeta>
                                                                                                    
                                                                                                    
                                                                                                    
                                                                                                    
                                                                                                    
                                                                                                    
                                                                                                    
                                                                                                    
                                                                                                    
                                                                                                    
                                                                                                    
                                                                                                    
                                                                                                    
                                                                                                    
                                                                                                    
                                                                                                    
                                                                                                    
                                                                                                    
                                                                                                    
                                                                                                    
                           
<?xpacket end="w"?></metadata>
<defs>
    <style>
      .cls-1 {
        fill: #015aab;
      }

      .cls-1, .cls-2, .cls-3 {
        fill-rule: evenodd;
      }

      .cls-2 {
        fill: #08a23f;
      }

      .cls-3 {
        fill: #fff;
      }
    </style>
  </defs>
  <path id="パス" class="cls-1" d="M21,18.59c-1.759,0-3.518-.007-5.277,0A4.741,4.741,0,0,0,10.932,23.1c-0.176,2.351-.316,4.707-0.548,7.053a3.554,3.554,0,0,1-2.732,3.364,4.073,4.073,0,0,1-4.623-1.332A6.255,6.255,0,0,1,1.7,28.56a85.35,85.35,0,0,1,.7-17.322,12.85,12.85,0,0,1,2.59-6.189,10.545,10.545,0,0,1,6.6-3.78,37.982,37.982,0,0,1,16.67.32,10.02,10.02,0,0,1,5.825,3.618A8.328,8.328,0,0,1,29.3,18.324a24.783,24.783,0,0,1-7.229.346c-0.356-.015-0.712,0-1.069,0C21,18.642,21,18.616,21,18.59Z"/>
  <path id="パス-2" data-name="パス" class="cls-2" d="M22.808,32.516c-1.829,0-3.659.015-5.489,0-1.96-.02-2.593-0.673-2.6-2.64-0.006-1.644,0-3.288,0-4.932,0-3.485,2.518-5.082,5.657-3.515,2.143,1.07,4.215,2.283,6.314,3.443,1.164,0.643,2.317,1.308,3.473,1.965A3.02,3.02,0,0,1,31.615,30.3a2.894,2.894,0,0,1-2.82,2.2C26.8,32.538,24.8,32.515,22.808,32.516Z"/>
  <path id="パス-3" data-name="パス" class="cls-3" d="M1.458,39.3c0.183-.583.332-1.107,0.517-1.618,0.071-.2.045-0.489,0.4-0.5s0.34,0.283.407,0.481c0.183,0.538.335,1.087,0.54,1.768,0.2-.7.366-1.279,0.53-1.857,0.068-.242.155-0.466,0.473-0.384,0.417,0.106.093,0.356,0.054,0.494-0.205.73-.459,1.447-0.679,2.174a0.363,0.363,0,0,1-.367.348,0.376,0.376,0,0,1-.377-0.346C2.782,39.3,2.6,38.75,2.362,38.03c-0.229.7-.392,1.227-0.579,1.748a0.437,0.437,0,0,1-.389.431c-0.352.011-.359-0.265-0.423-0.471-0.22-.7-0.425-1.407-0.621-2.114-0.04-.143-0.283-0.359.082-0.433a0.351,0.351,0,0,1,.464.3c0.12,0.508.25,1.014,0.386,1.518A1.42,1.42,0,0,0,1.458,39.3Z"/>
  <path id="パス-4" data-name="パス" class="cls-3" d="M13.324,40.162c-0.719.26-.846-0.4-1.181-0.75-0.164-.17-0.2-0.571-0.522-0.462-0.256.087-.13,0.417-0.17,0.641s0.165,0.6-.268.6c-0.453.009-.26-0.375-0.263-0.588-0.019-1.094-.016-2.188,0-3.282,0-.2-0.131-0.534.276-0.517,0.389,0.016.255,0.338,0.26,0.544,0.017,0.64.006,1.28,0.006,1.959,0.664-.261.746-1.331,1.67-1.1a0.3,0.3,0,0,1,0,.132c-0.283.4-.923,0.681-0.887,1.116a3.319,3.319,0,0,0,.821,1.214A0.776,0.776,0,0,1,13.324,40.162Z"/>
  <path id="パス-5" data-name="パス" class="cls-3" d="M14.724,37.1c1.293,0.294.884,1.529,1.513,2.1a8.082,8.082,0,0,0,.56-1.52c0.1-.264.143-0.616,0.536-0.487,0.449,0.147.087,0.434,0.022,0.613q-0.46,1.27-.992,2.512a1.936,1.936,0,0,1-.961,1.1c-0.129.057-.257,0.155-0.36-0.029-0.086-.153-0.151-0.321.059-0.424,0.932-.46.789-1.131,0.418-1.9C15.241,38.5,15.038,37.893,14.724,37.1Z"/>
  <path id="複合パス" class="cls-3" d="M5.256,38.8c0.263,0.93.487,1.058,1.51,0.924C6.9,39.7,7.035,39.589,7.11,39.8a0.22,0.22,0,0,1-.145.334,1.973,1.973,0,0,1-1.652-.119,1.448,1.448,0,0,1-.609-1.5A1.417,1.417,0,0,1,5.629,37.2a1.288,1.288,0,0,1,1.738,1.294c-0.011.343-.211,0.306-0.423,0.306H5.256Zm0.816-.343c0.139-.313.653,0.253,0.659-0.33a0.59,0.59,0,0,0-.62-0.574,0.662,0.662,0,0,0-.749.609C5.37,38.61,5.815,38.255,6.073,38.453Z"/>
  <path id="複合パス-2" data-name="複合パス" class="cls-3" d="M9.246,40.251a1.36,1.36,0,0,1-1.417-.8,1.734,1.734,0,0,1,.245-1.877,1.229,1.229,0,0,1,1.345-.416,1.362,1.362,0,0,1,.934,1.358c-0.028.282-.2,0.275-0.4,0.275-0.475,0-.95.011-1.424,0-0.286-.008-0.315.108-0.229,0.342a1.054,1.054,0,0,0,1.2.653c0.192,0,.494-0.353.577,0.04,0.093,0.443-.342.332-0.586,0.4A1.344,1.344,0,0,1,9.246,40.251Zm0.5-1.9a0.69,0.69,0,0,0-.719-0.806,0.738,0.738,0,0,0-.718.806H9.747Z"/>
  <path id="複合パス-3" data-name="複合パス" class="cls-3" d="M20.333,38.717a1.443,1.443,0,0,1,1.135-1.577,1.259,1.259,0,0,1,1.5,1.353,0.277,0.277,0,0,1-.353.3c-0.426-.008-0.853.018-1.277-0.007-0.518-.03-0.5.224-0.3,0.549a1.1,1.1,0,0,0,1.257.413c0.172-.029.379-0.2,0.464,0.09,0.1,0.34-.216.318-0.389,0.359A1.477,1.477,0,0,1,20.333,38.717Zm1.293-.294c0.226-.179.684,0.233,0.719-0.283a0.582,0.582,0,0,0-.646-0.6,0.67,0.67,0,0,0-.731.621C20.974,38.623,21.417,38.252,21.626,38.424Z"/>
  <path id="複合パス-4" data-name="複合パス" class="cls-3" d="M29.085,38.8c0.25,0.934.495,1.079,1.485,0.931,0.155-.023.31-0.155,0.374,0.125,0.047,0.2-.082.238-0.208,0.3a1.624,1.624,0,0,1-2.084-.7,1.7,1.7,0,0,1,.777-2.237,1.274,1.274,0,0,1,1.755,1.252C31.179,38.771,31,38.8,30.769,38.8,30.224,38.792,29.679,38.8,29.085,38.8Zm0.026-.439h1.46a0.682,0.682,0,0,0-.642-0.806A0.8,0.8,0,0,0,29.112,38.356Z"/>
  <path id="パス-6" data-name="パス" class="cls-3" d="M26.074,39.028c0,0.262,0,.524,0,0.786,0,0.186.033,0.38-.266,0.392C25.464,40.221,25.5,40,25.5,39.786c0-.429,0-0.858,0-1.286s-0.087-.853-0.626-0.861a0.743,0.743,0,0,0-.765.9q0,0.643,0,1.286c0,0.2,0,.382-0.287.377s-0.294-.177-0.3-0.38c0-.786,0-1.572-0.018-2.358,0-.23.166-0.372,0.282-0.261,0.371,0.355.653,0.014,0.965-.058a1.043,1.043,0,0,1,1.311.952,7.417,7.417,0,0,1,.007.928h0.009Z"/>
  <path id="パス-7" data-name="パス" class="cls-3" d="M19.466,37.634a1.063,1.063,0,1,0,.126,2.091c0.208-.033.381-0.106,0.423,0.17s-0.207.287-.369,0.312a1.528,1.528,0,0,1-1.659-.515,1.63,1.63,0,0,1-.082-1.814,1.478,1.478,0,0,1,1.57-.733c0.2,0.017.557-.069,0.534,0.294C19.984,37.837,19.65,37.6,19.466,37.634Z"/>
  <path id="パス-8" data-name="パス" class="cls-3" d="M27.469,36.525c0.018,0.362-.014.786,0.573,0.673a0.2,0.2,0,0,1,.238.264c-0.023.206-.189,0.2-0.318,0.18-0.456-.073-0.491.184-0.467,0.535,0.022,0.307.006,0.617,0,.925,0,0.329.035,0.64,0.461,0.653a0.221,0.221,0,0,1,.26.243c0.009,0.268-.2.224-0.349,0.238a0.757,0.757,0,0,1-.925-0.741c-0.041-.4,0-0.806-0.029-1.208-0.017-.26.186-0.647-0.335-0.677-0.11-.006-0.1-0.221-0.08-0.228C26.947,37.239,26.837,36.49,27.469,36.525Z"/>
  <path id="パス-9" data-name="パス" class="cls-3" d="M31.745,38.515c-0.013-.252-0.03-0.629-0.055-1.006-0.016-.246.2-0.442,0.314-0.309,0.35,0.391.571,0.025,0.84-.058,0.14-.043.3-0.093,0.344,0.1,0.034,0.143.117,0.382-.107,0.417-0.888.141-.753,0.826-0.785,1.423-0.015.283,0,.568-0.005,0.851a0.254,0.254,0,0,1-.321.272,0.227,0.227,0,0,1-.224-0.286C31.744,39.493,31.745,39.067,31.745,38.515Z"/>
  <path id="パス-10" data-name="パス" class="cls-3" d="M14.37,38c0,0.592,0,1.184,0,1.776,0,0.21.042,0.435-.3,0.422-0.3-.011-0.266-0.2-0.266-0.388q0-1.811,0-3.622c0-.187-0.025-0.379.268-0.389,0.345-.013.3,0.218,0.3,0.426C14.371,36.821,14.37,37.413,14.37,38Z"/>
  <path id="ウィークリーセンター" class="cls-3" d="M51.9,35.334c7.02-2.175,11.313-5.511,13.923-13.662a2.552,2.552,0,0,1,.609-1.276c1.1-.7,1.218-0.783,1.218-1.276a1.232,1.232,0,0,0-.522-0.87c-1.334-1.305-2.291-2.233-2.843-2.233-0.232,0-.319.087-1.16,0.9a1.209,1.209,0,0,1-1.189.319c-0.261,0-3.046.116-3.51,0.145a10.87,10.87,0,0,1,.493-2.466,10.153,10.153,0,0,0,.493-1.508c0-1.276-2.669-1.972-3.771-1.972a4.263,4.263,0,0,0-2.872,1.044c1.6-.029,2.407.522,2.582,1.015,0.116,0.348.116,0.348,0.319,4.032-1.044.029-2.059,0.087-2.727,0.116-0.232,0-.638.116-0.957,0.116A8.9,8.9,0,0,1,50.512,17a6.373,6.373,0,0,0-2.262-.551,2.562,2.562,0,0,0-1.711.493c0.7,0.435,1.537.928,1.537,3.075,0,0.551-.174,3.046-0.174,3.365a2.639,2.639,0,0,0,1.973,2.843c1.218,0,1.537-1.1,1.537-2.262,0-.319-0.116-4.206-0.174-4.5a3.219,3.219,0,0,0,.87.29c0.174,0,1.16-.2,1.363-0.232,2.553-.377,7.426-0.609,8.528-0.609a0.542,0.542,0,0,1,.609.58c0,0.87-2.437,11.6-10.82,15.606ZM71.8,28.75c1.044-.261,3.713-0.957,8.18-4.525a5.56,5.56,0,0,1,.145,1.624c0,2.118-.145,4.96-0.174,5.366-0.029.261-.261,1.537-0.261,1.828,0,0.7.841,2.147,1.74,2.147,0.29,0,1.392-.145,1.392-1.944,0-.522-0.174-5.279-0.174-6.266,0-.319,0-1.015.058-1.769,0.029-.2.29-1.131,0.29-1.334,0-.435-0.493-0.7-1.305-1.1,0.638-.58,1.972-1.973,2.9-2.9a4.615,4.615,0,0,1,1.131-.957c0.725-.377.986-0.522,0.986-0.9,0-.7-2.088-2.785-3.916-2.785a3.081,3.081,0,0,0-.986.145c0.7,0.464,1.1.725,1.1,1.276,0,0.957-2.059,3.336-2.988,4.438a42.114,42.114,0,0,1-8.238,7.426Zm22.3-9.891a6.149,6.149,0,0,0-.754,2.233,4.817,4.817,0,0,0,.812,2.321c1.276,1.508,1.421,1.682,2,1.682a9.993,9.993,0,0,0,1.682-.464c0.957-.319,7.977-0.667,8.064-0.667,2.437,0,6.237.058,6.324,0.058,0.261,0.029,1.479.058,1.769,0.058,0.551,0.029,1.828-.029,1.828-1.276,0-1.711-2.35-2.2-3.742-2.2a8.622,8.622,0,0,0-1.16.319c-0.755.2-12.445,0.319-14.1,0.319C95,21.237,94.625,20.309,94.1,18.858Zm27.188,16.273a23,23,0,0,0,5.569-2.176c5.918-3.1,9.079-7.078,11.835-12.125,0.7-1.305.783-1.479,1.16-1.624,1.016-.435,1.451-0.725,1.451-1.131a0.72,0.72,0,0,0-.232-0.58,22.172,22.172,0,0,0-2.524-2.06,1.961,1.961,0,0,0-.7-0.406,9.345,9.345,0,0,0-1.421.928,14.33,14.33,0,0,1-4.816.7,12.371,12.371,0,0,1,1.1-1.276c0.725-.609.812-0.667,0.812-1.015,0-1.1-2.988-2.727-4.612-2.727a5.423,5.423,0,0,0-1.915.406c0.464,0.2,2,.928,2,1.885,0,0.551-3.017,6.614-7.31,10.907l0.145,0.232c4.148-1.741,6.266-4.264,8.557-6.991a2.228,2.228,0,0,0,1.218.551c0.058,0,1.625-.319,1.77-0.348,0.377-.058,2.262-0.319,2.668-0.406C135.04,20.947,128.514,31.418,121.2,34.9ZM145.754,13.84c2.669,0.754,2.93.812,2.93,4.554,0,1.073-.058,2.175-0.145,3.075-0.029.232-.232,1.363-0.232,1.624,0,1.276.9,3.046,2.088,3.046,1.48,0,1.48-1.973,1.48-2.7,0-.609-0.058-3.6-0.058-4.293a17.35,17.35,0,0,1,.29-3.481,3.391,3.391,0,0,0,.087-0.638c0-1.479-2.524-2.089-4-2.089A3.575,3.575,0,0,0,145.754,13.84Zm6.556,21.871a13.381,13.381,0,0,0,5.6-2.988c2.988-2.582,4.264-5.482,4.438-9.949,0.058-1.16.261-6.672,0.319-7.455,0.029-.29.522-1.624,0.522-1.943,0-1.189-2.9-2.147-4.322-2.147a4.172,4.172,0,0,0-2.784,1.073,3.417,3.417,0,0,1,2.378,1.1c0.522,0.7.522,4,.522,5.25,0,5.047-.029,11.777-6.816,16.882Zm18.618-16.853a6.15,6.15,0,0,0-.754,2.233,4.818,4.818,0,0,0,.812,2.321c1.276,1.508,1.421,1.682,2,1.682a9.97,9.97,0,0,0,1.683-.464c0.957-.319,7.977-0.667,8.064-0.667,2.436,0,6.236.058,6.323,0.058,0.261,0.029,1.48.058,1.77,0.058,0.551,0.029,1.827-.029,1.827-1.276,0-1.711-2.349-2.2-3.742-2.2a8.622,8.622,0,0,0-1.16.319c-0.754.2-12.444,0.319-14.1,0.319C171.827,21.237,171.45,20.309,170.928,18.858Zm42.33,6.149c1.624-.957,1.8-1.073,5.8-3.742a5.05,5.05,0,0,1,1.566-.754c1.1-.319,1.335-0.377,1.335-0.986,0-.87-3.655-3.133-3.916-3.133a5.54,5.54,0,0,0-.609.406,5.86,5.86,0,0,1-1.77.9c-0.928.261-5.366,1.392-6.381,1.653,0.058-.551.377-4.061,0.435-4.293a15.667,15.667,0,0,0,.522-1.653c0-1.247-2.988-1.885-4.235-1.885a4.066,4.066,0,0,0-3.017,1.247c0.7,0.058,2.35.2,2.785,1.276a43.639,43.639,0,0,1,.261,6.149,29.324,29.324,0,0,1-4.815,1.015c-1.277,0-1.944-.522-2.785-2.059a7.538,7.538,0,0,0-.2,1.479c0,1.16,1.247,4.293,3.046,4.293a1.963,1.963,0,0,0,.928-0.377,27.248,27.248,0,0,1,3.8-1.972c-0.116,6.062.029,7.136,0.551,8.18,1.16,2.234,3.249,2.756,7.6,2.756a17.22,17.22,0,0,0,5.192-.638,1.646,1.646,0,0,0,1.044-1.566c0-1.74-2.755-1.915-2.987-1.915a4.989,4.989,0,0,0-1.045.145,21.226,21.226,0,0,1-4.931.638c-2.61,0-2.61-.841-2.61-3.162,0-1.276.116-3.336,0.29-5.54,3.219-1.044,4.264-1.363,6.816-2a21.417,21.417,0,0,1-2.842,5.366Zm14.019-12.1a10.887,10.887,0,0,1,4.67,3.6c1.334,1.566,1.48,1.74,2.176,1.74a2.077,2.077,0,0,0,2-2.146c0-2.872-3.539-3.568-5.83-3.568A12.825,12.825,0,0,0,227.277,12.912ZM248.017,15c-6.207,8.325-16.1,13.546-17.2,13.546-0.957,0-1.886-1.218-2.408-2.117a3.229,3.229,0,0,0-.377,1.421c0,2.234,2.727,5.25,4.206,5.25a1.227,1.227,0,0,0,.841-0.406c0.174-.174.9-0.812,0.987-0.9,6.932-5.221,11.4-8.731,14.184-16.679Zm4.839,10.355a27.422,27.422,0,0,0,5.4-3.8c0.928,0.551,1.479,1.334,2.987,3.568a1.813,1.813,0,0,0,1.132.754c-1.741,2.175-4.99,6.295-10.008,8.818l0.087,0.232c9.514-2.466,14.156-8.789,16.708-13.72,1.131-2.2,1.247-2.437,1.828-2.7,0.551-.232.783-0.319,0.783-0.783a12.371,12.371,0,0,0-2.031-2.553,1.149,1.149,0,0,0-.87-0.609,6.77,6.77,0,0,0-1.305.783,17.31,17.31,0,0,1-4.931.783,5.23,5.23,0,0,1,.812-1.073,1.629,1.629,0,0,0,.609-1.16c0-1.334-2.756-2.582-3.771-2.582a3.3,3.3,0,0,0-2.059.667c0.464,0.145,1.972.609,1.972,1.421,0,1.015-3.684,7.774-7.513,11.777Zm11.255-1.972c-0.58-1.915-3.423-2.379-5.279-2.379a25.036,25.036,0,0,0,3.016-3.626,2.525,2.525,0,0,0,1.161.522c0.2,0,.957-0.2,1.131-0.2,0.464-.087,2.524-0.377,2.959-0.435A24.156,24.156,0,0,1,264.111,23.384Zm14.368-4.525a6.15,6.15,0,0,0-.754,2.233,4.818,4.818,0,0,0,.812,2.321c1.276,1.508,1.421,1.682,2,1.682a9.97,9.97,0,0,0,1.683-.464c0.957-.319,7.977-0.667,8.064-0.667,2.436,0,6.236.058,6.323,0.058,0.261,0.029,1.48.058,1.77,0.058,0.551,0.029,1.827-.029,1.827-1.276,0-1.711-2.349-2.2-3.742-2.2a8.622,8.622,0,0,0-1.16.319c-0.754.2-12.444,0.319-14.1,0.319C279.378,21.237,279,20.309,278.479,18.858Z"/>
</svg>
