<svg id="レイヤー_1" data-name="レイヤー 1" xmlns="http://www.w3.org/2000/svg" width="100%" height="100%" viewBox="0 0 301 42">
  <metadata><?xpacket begin="﻿" id="W5M0MpCehiHzreSzNTczkc9d"?>
<x:xmpmeta xmlns:x="adobe:ns:meta/" x:xmptk="Adobe XMP Core 5.6-c142 79.160924, 2017/07/13-01:06:39        ">
   <rdf:RDF xmlns:rdf="http://www.w3.org/1999/02/22-rdf-syntax-ns#">
      <rdf:Description rdf:about=""/>
   </rdf:RDF>
</x:xmpmeta>
                                                                                                    
                                                                                                    
                                                                                                    
                                                                                                    
                                                                                                    
                                                                                                    
                                                                                                    
                                                                                                    
                                                                                                    
                                                                                                    
                                                                                                    
                                                                                                    
                                                                                                    
                                                                                                    
                                                                                                    
                                                                                                    
                                                                                                    
                                                                                                    
                                                                                                    
                                                                                                    
                           
<?xpacket end="w"?></metadata>
<defs>
    <style>
      .cls-1 {
        fill: #015aab;
      }

      .cls-1, .cls-2, .cls-3 {
        fill-rule: evenodd;
      }

      .cls-2 {
        fill: #08a23f;
      }

      .cls-3 {
        fill: #fff;
      }
    </style>
  </defs>
  <path id="パス" class="cls-1" d="M21,18.59c-1.759,0-3.518-.007-5.277,0A4.741,4.741,0,0,0,10.932,23.1c-0.176,2.351-.316,4.707-0.548,7.053a3.554,3.554,0,0,1-2.732,3.364,4.073,4.073,0,0,1-4.623-1.332A6.255,6.255,0,0,1,1.7,28.56a85.35,85.35,0,0,1,.7-17.322,12.85,12.85,0,0,1,2.59-6.189,10.545,10.545,0,0,1,6.6-3.78,37.982,37.982,0,0,1,16.67.32,10.02,10.02,0,0,1,5.825,3.618A8.328,8.328,0,0,1,29.3,18.324a24.783,24.783,0,0,1-7.229.346c-0.356-.015-0.712,0-1.069,0C21,18.642,21,18.616,21,18.59Z"/>
  <path id="パス-2" data-name="パス" class="cls-2" d="M22.808,32.516c-1.829,0-3.659.015-5.489,0-1.96-.02-2.593-0.673-2.6-2.64-0.006-1.644,0-3.288,0-4.932,0-3.485,2.518-5.082,5.657-3.515,2.143,1.07,4.215,2.283,6.314,3.443,1.164,0.643,2.317,1.308,3.473,1.965A3.02,3.02,0,0,1,31.615,30.3a2.894,2.894,0,0,1-2.82,2.2C26.8,32.538,24.8,32.515,22.808,32.516Z"/>
  <path id="パス-3" data-name="パス" class="cls-3" d="M1.458,39.3c0.183-.583.332-1.107,0.517-1.618,0.071-.2.045-0.489,0.4-0.5s0.34,0.283.407,0.481c0.183,0.538.335,1.087,0.54,1.768,0.2-.7.366-1.279,0.53-1.857,0.068-.242.155-0.466,0.473-0.384,0.417,0.106.093,0.356,0.054,0.494-0.205.73-.459,1.447-0.679,2.174a0.363,0.363,0,0,1-.367.348,0.376,0.376,0,0,1-.377-0.346C2.782,39.3,2.6,38.75,2.362,38.03c-0.229.7-.392,1.227-0.579,1.748a0.437,0.437,0,0,1-.389.431c-0.352.011-.359-0.265-0.423-0.471-0.22-.7-0.425-1.407-0.621-2.114-0.04-.143-0.283-0.359.082-0.433a0.351,0.351,0,0,1,.464.3c0.12,0.508.25,1.014,0.386,1.518A1.42,1.42,0,0,0,1.458,39.3Z"/>
  <path id="パス-4" data-name="パス" class="cls-3" d="M13.324,40.162c-0.719.26-.846-0.4-1.181-0.75-0.164-.17-0.2-0.571-0.522-0.462-0.256.087-.13,0.417-0.17,0.641s0.165,0.6-.268.6c-0.453.009-.26-0.375-0.263-0.588-0.019-1.094-.016-2.188,0-3.282,0-.2-0.131-0.534.276-0.517,0.389,0.016.255,0.338,0.26,0.544,0.017,0.64.006,1.28,0.006,1.959,0.664-.261.746-1.331,1.67-1.1a0.3,0.3,0,0,1,0,.132c-0.283.4-.923,0.681-0.887,1.116a3.319,3.319,0,0,0,.821,1.214A0.776,0.776,0,0,1,13.324,40.162Z"/>
  <path id="パス-5" data-name="パス" class="cls-3" d="M14.724,37.1c1.293,0.294.884,1.529,1.513,2.1a8.082,8.082,0,0,0,.56-1.52c0.1-.264.143-0.616,0.536-0.487,0.449,0.147.087,0.434,0.022,0.613q-0.46,1.27-.992,2.512a1.936,1.936,0,0,1-.961,1.1c-0.129.057-.257,0.155-0.36-0.029-0.086-.153-0.151-0.321.059-0.424,0.932-.46.789-1.131,0.418-1.9C15.241,38.5,15.038,37.893,14.724,37.1Z"/>
  <path id="複合パス" class="cls-3" d="M5.256,38.8c0.263,0.93.487,1.058,1.51,0.924C6.9,39.7,7.035,39.589,7.11,39.8a0.22,0.22,0,0,1-.145.334,1.973,1.973,0,0,1-1.652-.119,1.448,1.448,0,0,1-.609-1.5A1.417,1.417,0,0,1,5.629,37.2a1.288,1.288,0,0,1,1.738,1.294c-0.011.343-.211,0.306-0.423,0.306H5.256Zm0.816-.343c0.139-.313.653,0.253,0.659-0.33a0.59,0.59,0,0,0-.62-0.574,0.662,0.662,0,0,0-.749.609C5.37,38.61,5.815,38.255,6.073,38.453Z"/>
  <path id="複合パス-2" data-name="複合パス" class="cls-3" d="M9.246,40.251a1.36,1.36,0,0,1-1.417-.8,1.734,1.734,0,0,1,.245-1.877,1.229,1.229,0,0,1,1.345-.416,1.362,1.362,0,0,1,.934,1.358c-0.028.282-.2,0.275-0.4,0.275-0.475,0-.95.011-1.424,0-0.286-.008-0.315.108-0.229,0.342a1.054,1.054,0,0,0,1.2.653c0.192,0,.494-0.353.577,0.04,0.093,0.443-.342.332-0.586,0.4A1.344,1.344,0,0,1,9.246,40.251Zm0.5-1.9a0.69,0.69,0,0,0-.719-0.806,0.738,0.738,0,0,0-.718.806H9.747Z"/>
  <path id="複合パス-3" data-name="複合パス" class="cls-3" d="M20.333,38.717a1.443,1.443,0,0,1,1.135-1.577,1.259,1.259,0,0,1,1.5,1.353,0.277,0.277,0,0,1-.353.3c-0.426-.008-0.853.018-1.277-0.007-0.518-.03-0.5.224-0.3,0.549a1.1,1.1,0,0,0,1.257.413c0.172-.029.379-0.2,0.464,0.09,0.1,0.34-.216.318-0.389,0.359A1.477,1.477,0,0,1,20.333,38.717Zm1.293-.294c0.226-.179.684,0.233,0.719-0.283a0.582,0.582,0,0,0-.646-0.6,0.67,0.67,0,0,0-.731.621C20.974,38.623,21.417,38.252,21.626,38.424Z"/>
  <path id="複合パス-4" data-name="複合パス" class="cls-3" d="M29.085,38.8c0.25,0.934.495,1.079,1.485,0.931,0.155-.023.31-0.155,0.374,0.125,0.047,0.2-.082.238-0.208,0.3a1.624,1.624,0,0,1-2.084-.7,1.7,1.7,0,0,1,.777-2.237,1.274,1.274,0,0,1,1.755,1.252C31.179,38.771,31,38.8,30.769,38.8,30.224,38.792,29.679,38.8,29.085,38.8Zm0.026-.439h1.46a0.682,0.682,0,0,0-.642-0.806A0.8,0.8,0,0,0,29.112,38.356Z"/>
  <path id="パス-6" data-name="パス" class="cls-3" d="M26.074,39.028c0,0.262,0,.524,0,0.786,0,0.186.033,0.38-.266,0.392C25.464,40.221,25.5,40,25.5,39.786c0-.429,0-0.858,0-1.286s-0.087-.853-0.626-0.861a0.743,0.743,0,0,0-.765.9q0,0.643,0,1.286c0,0.2,0,.382-0.287.377s-0.294-.177-0.3-0.38c0-.786,0-1.572-0.018-2.358,0-.23.166-0.372,0.282-0.261,0.371,0.355.653,0.014,0.965-.058a1.043,1.043,0,0,1,1.311.952,7.417,7.417,0,0,1,.007.928h0.009Z"/>
  <path id="パス-7" data-name="パス" class="cls-3" d="M19.466,37.634a1.063,1.063,0,1,0,.126,2.091c0.208-.033.381-0.106,0.423,0.17s-0.207.287-.369,0.312a1.528,1.528,0,0,1-1.659-.515,1.63,1.63,0,0,1-.082-1.814,1.478,1.478,0,0,1,1.57-.733c0.2,0.017.557-.069,0.534,0.294C19.984,37.837,19.65,37.6,19.466,37.634Z"/>
  <path id="パス-8" data-name="パス" class="cls-3" d="M27.469,36.525c0.018,0.362-.014.786,0.573,0.673a0.2,0.2,0,0,1,.238.264c-0.023.206-.189,0.2-0.318,0.18-0.456-.073-0.491.184-0.467,0.535,0.022,0.307.006,0.617,0,.925,0,0.329.035,0.64,0.461,0.653a0.221,0.221,0,0,1,.26.243c0.009,0.268-.2.224-0.349,0.238a0.757,0.757,0,0,1-.925-0.741c-0.041-.4,0-0.806-0.029-1.208-0.017-.26.186-0.647-0.335-0.677-0.11-.006-0.1-0.221-0.08-0.228C26.947,37.239,26.837,36.49,27.469,36.525Z"/>
  <path id="パス-9" data-name="パス" class="cls-3" d="M31.745,38.515c-0.013-.252-0.03-0.629-0.055-1.006-0.016-.246.2-0.442,0.314-0.309,0.35,0.391.571,0.025,0.84-.058,0.14-.043.3-0.093,0.344,0.1,0.034,0.143.117,0.382-.107,0.417-0.888.141-.753,0.826-0.785,1.423-0.015.283,0,.568-0.005,0.851a0.254,0.254,0,0,1-.321.272,0.227,0.227,0,0,1-.224-0.286C31.744,39.493,31.745,39.067,31.745,38.515Z"/>
  <path id="パス-10" data-name="パス" class="cls-3" d="M14.37,38c0,0.592,0,1.184,0,1.776,0,0.21.042,0.435-.3,0.422-0.3-.011-0.266-0.2-0.266-0.388q0-1.811,0-3.622c0-.187-0.025-0.379.268-0.389,0.345-.013.3,0.218,0.3,0.426C14.371,36.821,14.37,37.413,14.37,38Z"/>
  <text x="50" y="35" style="font-size: 30px;fill: #fff;">Weekly Center</text>
</svg>
