<svg xmlns="http://www.w3.org/2000/svg" viewBox="0 0 29.5 28.44"><defs><style>.cls-1{fill:#015aab;}.cls-2{fill:#08a23f;}</style></defs><title>favicon</title><g id="レイヤー_2" data-name="レイヤー 2"><g id="レイヤー_1-2" data-name="レイヤー 1"><path class="cls-1" d="M0,24,.59,11.61c0-1.58.59-5.31,1.48-6.2C3.24,3.64,6.78.69,9.44.4,12.69.13,20.65-.78,24.78,1.58S29.5,6.89,29.5,8.66s-1.77,6.49-7.67,7.08a32.76,32.76,0,0,1-9.73-.3S8.56,14.85,8,21.93s-4.13,6.49-4.13,6.49S.3,28.42,0,24Z"/><path class="cls-2" d="M11.51,26.06v-5.9a2.89,2.89,0,0,1,2.94-2.95c2.95,0,9.45,4.13,10.62,5.31a3.23,3.23,0,0,1,1.19,2.95c0,1.18-.6,2.36-3.54,2.36H13.27A1.73,1.73,0,0,1,11.51,26.06Z"/></g></g></svg>