<svg xmlns="http://www.w3.org/2000/svg" viewBox="0 0 21.09 22.13"><defs><style>.cls-1{fill:#fff;}</style></defs><title>menu</title><g id="レイヤー_2" data-name="レイヤー 2"><g id="レイヤー_1-2" data-name="レイヤー 1"><rect class="cls-1" x="2.55" width="16" height="1"/><rect class="cls-1" x="2.55" y="4" width="16" height="1"/><rect class="cls-1" x="2.55" y="8" width="16" height="1"/><rect class="cls-1" x="2.55" y="12" width="16" height="1"/><polygon class="cls-1" points="4.62 16.11 3.01 20.45 1.42 16.11 0.32 16.11 0 22.01 0.91 22.01 1.1 17.71 2.56 21.73 2.59 21.81 3.37 21.81 4.93 17.68 5.12 22.01 6.06 22.01 5.76 16.11 4.62 16.11"/><polygon class="cls-1" points="7.9 19.39 9.96 19.39 9.96 18.56 7.9 18.56 7.9 16.95 10.21 16.95 10.21 16.11 6.98 16.11 6.98 22.01 10.39 22.01 10.39 21.16 7.9 21.16 7.9 19.39"/><polygon class="cls-1" points="14.61 20.37 12.09 16.17 12.06 16.11 10.96 16.11 10.96 22.01 11.86 22.01 11.86 17.48 14.55 22.01 15.51 22.01 15.51 16.11 14.61 16.11 14.61 20.37"/><path class="cls-1" d="M20.15,16.1v3.72c0,1-.46,1.47-1.37,1.47s-1.38-.48-1.38-1.47V16.1h-.93v4a2,2,0,0,0,2.29,2.07h0a2.06,2.06,0,0,0,2.32-2.07v-4Z"/></g></g></svg>